<mxfile host="65bd71144e">
    <diagram id="g9lPvWpcfpZbrK-tvjy2" name="Page-1">
        <mxGraphModel dx="1252" dy="301" grid="1" gridSize="10" guides="1" tooltips="1" connect="1" arrows="1" fold="1" page="1" pageScale="1" pageWidth="827" pageHeight="1169" math="0" shadow="0">
            <root>
                <mxCell id="0"/>
                <mxCell id="1" parent="0"/>
                <mxCell id="6" value="&lt;table style=&quot;width: 180px; height: 180px; border-collapse: collapse;&quot; border=&quot;1&quot; width=&quot;100%&quot; height=&quot;100%&quot; cellpadding=&quot;4&quot;&gt;&lt;tbody&gt;&lt;tr&gt;&lt;th align=&quot;center&quot;&gt;&lt;span style=&quot;color: rgb(0, 0, 0); font-weight: 400;&quot;&gt;&amp;lt;&amp;lt;class&amp;gt;&amp;gt;&lt;/span&gt;&lt;br&gt;Entity&lt;/th&gt;&lt;/tr&gt;&lt;tr&gt;&lt;td&gt;+ x, y : int&lt;br&gt;+ dx, dy : int&lt;br&gt;&lt;/td&gt;&lt;/tr&gt;&lt;tr&gt;&lt;td&gt;+ Entity()&lt;br&gt;+&lt;font face=&quot;Helvetica&quot;&gt;&lt;span style=&quot;white-space: pre;&quot;&gt; &lt;/span&gt;&lt;span style=&quot;white-space: pre;&quot;&gt;~Entity&lt;/span&gt;&lt;span style=&quot;white-space: pre;&quot;&gt;() : &lt;/span&gt;&lt;/font&gt;&lt;span style=&quot;color: rgb(63, 63, 63);&quot;&gt;virtual&lt;/span&gt;&lt;/td&gt;&lt;/tr&gt;&lt;/tbody&gt;&lt;/table&gt;" style="verticalAlign=top;align=left;overflow=fill;html=1;whiteSpace=wrap;" vertex="1" parent="1">
                    <mxGeometry x="-110" y="40" width="180" height="180" as="geometry"/>
                </mxCell>
                <mxCell id="7" value="&lt;table style=&quot;width: 180px; height: 180px; border-collapse: collapse;&quot; border=&quot;1&quot; width=&quot;100%&quot; height=&quot;100%&quot; cellpadding=&quot;4&quot;&gt;&lt;tbody&gt;&lt;tr&gt;&lt;th align=&quot;center&quot;&gt;&lt;span style=&quot;color: rgb(0, 0, 0); font-weight: 400;&quot;&gt;&amp;lt;&amp;lt;class&amp;gt;&amp;gt;&lt;/span&gt;&lt;br style=&quot;font-weight: 400;&quot;&gt;Player&lt;/th&gt;&lt;/tr&gt;&lt;tr&gt;&lt;td&gt;- score : int&lt;br&gt;- board : GameBoard&lt;br&gt;&lt;/td&gt;&lt;/tr&gt;&lt;tr&gt;&lt;td&gt;+ Player()&lt;br&gt;+ movePacman() : void&lt;br&gt;+ checkCollision() : bool&lt;br&gt;+ getScore() const : int&lt;/td&gt;&lt;/tr&gt;&lt;/tbody&gt;&lt;/table&gt;" style="verticalAlign=top;align=left;overflow=fill;html=1;whiteSpace=wrap;" vertex="1" parent="1">
                    <mxGeometry x="40" y="280" width="180" height="180" as="geometry"/>
                </mxCell>
                <mxCell id="8" value="&lt;table style=&quot;width: 180px; height: 180px; border-collapse: collapse;&quot; border=&quot;1&quot; width=&quot;100%&quot; height=&quot;100%&quot; cellpadding=&quot;4&quot;&gt;&lt;tbody&gt;&lt;tr&gt;&lt;th align=&quot;center&quot;&gt;&lt;span style=&quot;color: rgb(0, 0, 0); font-weight: 400;&quot;&gt;&amp;lt;&amp;lt;class&amp;gt;&amp;gt;&lt;/span&gt;&lt;br&gt;Ghost&lt;/th&gt;&lt;/tr&gt;&lt;tr&gt;&lt;td&gt;- startX, startY : int&amp;nbsp;&lt;br&gt;- color : Color&lt;br&gt;- speed : int&lt;br&gt;- moveCounter : int&lt;br&gt;&lt;/td&gt;&lt;/tr&gt;&lt;tr&gt;&lt;td&gt;+ Ghost()&lt;br&gt;+ update() : void&lt;/td&gt;&lt;/tr&gt;&lt;/tbody&gt;&lt;/table&gt;" style="verticalAlign=top;align=left;overflow=fill;html=1;whiteSpace=wrap;" vertex="1" parent="1">
                    <mxGeometry x="-260" y="280" width="180" height="180" as="geometry"/>
                </mxCell>
                <mxCell id="9" value="&amp;lt;&amp;lt;enumeration&amp;gt;&amp;gt;&lt;br&gt;&lt;b&gt;GameState&lt;/b&gt;" style="swimlane;fontStyle=0;align=center;verticalAlign=top;childLayout=stackLayout;horizontal=1;startSize=40;horizontalStack=0;resizeParent=1;resizeParentMax=0;resizeLast=0;collapsible=0;marginBottom=0;html=1;whiteSpace=wrap;" vertex="1" parent="1">
                    <mxGeometry x="160" y="40" width="140" height="140" as="geometry"/>
                </mxCell>
                <mxCell id="10" value="STATE_START_MENU&lt;div&gt;STATE_ENTER_NAME&lt;/div&gt;&lt;div&gt;STATE_LEADERBOARD&lt;/div&gt;&lt;div&gt;STATE_PLAYING&lt;/div&gt;&lt;div&gt;STATE_PAUSED&lt;/div&gt;&lt;div&gt;STATE_GAME_OVER&lt;/div&gt;" style="text;html=1;strokeColor=none;fillColor=none;align=left;verticalAlign=middle;spacingLeft=4;spacingRight=4;overflow=hidden;rotatable=0;points=[[0,0.5],[1,0.5]];portConstraint=eastwest;whiteSpace=wrap;" vertex="1" parent="9">
                    <mxGeometry y="40" width="140" height="100" as="geometry"/>
                </mxCell>
                <mxCell id="11" value="&lt;table style=&quot;width: 180px; height: 180px; border-collapse: collapse;&quot; border=&quot;1&quot; width=&quot;100%&quot; height=&quot;100%&quot; cellpadding=&quot;4&quot;&gt;&lt;tbody&gt;&lt;tr&gt;&lt;th align=&quot;center&quot;&gt;&lt;span style=&quot;color: rgb(0, 0, 0); font-weight: 400;&quot;&gt;&amp;lt;&amp;lt;class&amp;gt;&amp;gt;&lt;/span&gt;&lt;br&gt;Game&lt;/th&gt;&lt;/tr&gt;&lt;tr&gt;&lt;td&gt;- board : Gameboard&lt;br&gt;- pacman : Player&lt;br&gt;- leaderboard : Leaderboard&lt;br&gt;- ghosts :&amp;nbsp;&lt;span style=&quot;color: rgb(63, 63, 63);&quot;&gt;vector&amp;lt;Ghost&amp;gt;&lt;/span&gt;&lt;br&gt;- playerName : string&lt;br&gt;- gameOver : bool&lt;br&gt;- state : GameState&lt;br&gt;&lt;/td&gt;&lt;/tr&gt;&lt;tr&gt;&lt;td&gt;- getPlayerName() : bool&lt;br&gt;- spawnFruit() : void&lt;br&gt;- waitForKeyRelease() : void&lt;br&gt;&lt;br&gt;+ Game()&lt;br&gt;+ run() : void&lt;br&gt;+ isGameOver() const : bool&lt;br&gt;+ getState() const : GameState&lt;br&gt;+ getPlayerName() const : const string&amp;amp;&lt;/td&gt;&lt;/tr&gt;&lt;/tbody&gt;&lt;/table&gt;" style="verticalAlign=top;align=left;overflow=fill;html=1;whiteSpace=wrap;" vertex="1" parent="1">
                    <mxGeometry x="400" y="40" width="180" height="300" as="geometry"/>
                </mxCell>
                <mxCell id="12" value="&amp;lt;&amp;lt;enumeration&amp;gt;&amp;gt;&lt;br&gt;&lt;b&gt;Cell&lt;/b&gt;" style="swimlane;fontStyle=0;align=center;verticalAlign=top;childLayout=stackLayout;horizontal=1;startSize=40;horizontalStack=0;resizeParent=1;resizeParentMax=0;resizeLast=0;collapsible=0;marginBottom=0;html=1;whiteSpace=wrap;" vertex="1" parent="1">
                    <mxGeometry x="610" y="320" width="140" height="110" as="geometry"/>
                </mxCell>
                <mxCell id="13" value="WALL&lt;div&gt;EMPTY&lt;/div&gt;&lt;div&gt;COIN&lt;/div&gt;&lt;div&gt;FRUIT&lt;/div&gt;" style="text;html=1;strokeColor=none;fillColor=none;align=left;verticalAlign=middle;spacingLeft=4;spacingRight=4;overflow=hidden;rotatable=0;points=[[0,0.5],[1,0.5]];portConstraint=eastwest;whiteSpace=wrap;" vertex="1" parent="12">
                    <mxGeometry y="40" width="140" height="70" as="geometry"/>
                </mxCell>
                <mxCell id="14" value="&lt;table style=&quot;width: 180px; height: 180px; border-collapse: collapse;&quot; border=&quot;1&quot; width=&quot;100%&quot; height=&quot;100%&quot; cellpadding=&quot;4&quot;&gt;&lt;tbody&gt;&lt;tr&gt;&lt;th align=&quot;center&quot;&gt;&lt;span style=&quot;color: rgb(0, 0, 0); font-weight: 400;&quot;&gt;&amp;lt;&amp;lt;class&amp;gt;&amp;gt;&lt;/span&gt;&lt;br&gt;Gameboard&lt;/th&gt;&lt;/tr&gt;&lt;tr&gt;&lt;td&gt;+ field : vector&amp;lt;vector&amp;lt;Cell&amp;gt;&amp;gt;&lt;br&gt;+ coinsLeft : int&lt;br&gt;+ fruitPresent : bool&lt;br&gt;+ fruitX, fruitY : int&lt;/td&gt;&lt;/tr&gt;&lt;tr&gt;&lt;td&gt;+ getCell() const : Cell&lt;br&gt;+ getWidth() const : int&lt;br&gt;+ getHeigth() const : int&lt;br&gt;+ getGhostStartPositions() const : const vector&amp;lt;pair&amp;lt;int,int&amp;gt;&amp;gt;&amp;amp;&lt;br&gt;+ generateRandomMap()&lt;br&gt;&lt;br&gt;&lt;u&gt;- shuffleDirections() : void&lt;br&gt;- dfs() : void&lt;/u&gt;&lt;/td&gt;&lt;/tr&gt;&lt;/tbody&gt;&lt;/table&gt;" style="verticalAlign=top;align=left;overflow=fill;html=1;whiteSpace=wrap;" vertex="1" parent="1">
                    <mxGeometry x="140" y="740" width="180" height="260" as="geometry"/>
                </mxCell>
                <mxCell id="15" value="&lt;table style=&quot;width: 180px; height: 180px; border-collapse: collapse;&quot; border=&quot;1&quot; width=&quot;100%&quot; height=&quot;100%&quot; cellpadding=&quot;4&quot;&gt;&lt;tbody&gt;&lt;tr&gt;&lt;th align=&quot;center&quot;&gt;&lt;span style=&quot;color: rgb(0, 0, 0); font-weight: 400;&quot;&gt;&amp;lt;&amp;lt;class&amp;gt;&amp;gt;&lt;br&gt;&lt;/span&gt;Leaderboard&lt;/th&gt;&lt;/tr&gt;&lt;tr&gt;&lt;td&gt;- filename : string&lt;br&gt;- entries: vector&amp;lt;pair&amp;lt;int,string&amp;gt;&amp;gt;&lt;/td&gt;&lt;/tr&gt;&lt;tr&gt;&lt;td&gt;+ Leaderboard()&lt;br&gt;+ getHighscore() const : int&lt;br&gt;+ getHighscoreName() const : string&lt;br&gt;+ tryUpdateHighscore() : bool&lt;br&gt;+ load() : void&lt;br&gt;+ save() const : void&lt;/td&gt;&lt;/tr&gt;&lt;/tbody&gt;&lt;/table&gt;" style="verticalAlign=top;align=left;overflow=fill;html=1;whiteSpace=wrap;" vertex="1" parent="1">
                    <mxGeometry x="-420" y="560" width="180" height="200" as="geometry"/>
                </mxCell>
                <mxCell id="16" value="&amp;lt;&amp;lt;struct&amp;gt;&amp;gt;&lt;br&gt;&lt;b&gt;MazeCell&lt;/b&gt;" style="swimlane;fontStyle=0;align=center;verticalAlign=top;childLayout=stackLayout;horizontal=1;startSize=40;horizontalStack=0;resizeParent=1;resizeParentMax=0;resizeLast=0;collapsible=0;marginBottom=0;html=1;whiteSpace=wrap;" vertex="1" parent="1">
                    <mxGeometry x="-140" y="840" width="220" height="110" as="geometry"/>
                </mxCell>
                <mxCell id="17" value="visited : bool&lt;div&gt;wall : bool&lt;/div&gt;&lt;div&gt;&lt;br&gt;&lt;/div&gt;&lt;div&gt;MazeCell() : visited(false), wall(true) {}&lt;/div&gt;" style="text;html=1;strokeColor=none;fillColor=none;align=left;verticalAlign=middle;spacingLeft=4;spacingRight=4;overflow=hidden;rotatable=0;points=[[0,0.5],[1,0.5]];portConstraint=eastwest;whiteSpace=wrap;" vertex="1" parent="16">
                    <mxGeometry y="40" width="220" height="70" as="geometry"/>
                </mxCell>
                <mxCell id="18" value="&lt;table style=&quot;width: 180px; height: 180px; border-collapse: collapse;&quot; border=&quot;1&quot; width=&quot;100%&quot; height=&quot;100%&quot; cellpadding=&quot;4&quot;&gt;&lt;tbody&gt;&lt;tr&gt;&lt;th align=&quot;center&quot;&gt;&lt;span style=&quot;color: rgb(0, 0, 0); font-weight: 400;&quot;&gt;&amp;lt;&amp;lt;class&amp;gt;&amp;gt;&lt;br&gt;&lt;/span&gt;Renderer&lt;/th&gt;&lt;/tr&gt;&lt;tr&gt;&lt;td&gt;&lt;u&gt;- pacmanTexture : Texture2D&lt;/u&gt;&lt;/td&gt;&lt;/tr&gt;&lt;tr&gt;&lt;td&gt;&lt;u&gt;+ init() : void&lt;br&gt;+ unload() : void&lt;br&gt;+ drawGame() : void&lt;br&gt;+ drawStartMenu() : void&lt;br&gt;+ drawPauseMenu() : void&lt;br&gt;+ drawLeaderboard() : void&lt;br&gt;+ drawGameOver() : void&lt;/u&gt;&lt;/td&gt;&lt;/tr&gt;&lt;/tbody&gt;&lt;/table&gt;" style="verticalAlign=top;align=left;overflow=fill;html=1;whiteSpace=wrap;" vertex="1" parent="1">
                    <mxGeometry x="400" y="560" width="180" height="180" as="geometry"/>
                </mxCell>
                <mxCell id="22" value="&amp;lt;&amp;lt;constants&amp;gt;&amp;gt;&lt;br&gt;&lt;b&gt;Constants&lt;/b&gt;" style="swimlane;fontStyle=0;align=center;verticalAlign=top;childLayout=stackLayout;horizontal=1;startSize=40;horizontalStack=0;resizeParent=1;resizeParentMax=0;resizeLast=0;collapsible=0;marginBottom=0;html=1;whiteSpace=wrap;" vertex="1" parent="1">
                    <mxGeometry x="640" y="560" width="170" height="150" as="geometry"/>
                </mxCell>
                <mxCell id="23" value="WIDTH : const int&lt;div&gt;HEIGHT : const int&lt;/div&gt;&lt;div&gt;TILE_SIZE : const int&lt;/div&gt;&lt;div&gt;SCREEN_WIDTH : const int&lt;/div&gt;&lt;div&gt;SCREEN_HEIGHT : const int&lt;/div&gt;" style="text;html=1;strokeColor=none;fillColor=none;align=left;verticalAlign=middle;spacingLeft=4;spacingRight=4;overflow=hidden;rotatable=0;points=[[0,0.5],[1,0.5]];portConstraint=eastwest;whiteSpace=wrap;" vertex="1" parent="22">
                    <mxGeometry y="40" width="170" height="110" as="geometry"/>
                </mxCell>
                <mxCell id="25" value="" style="endArrow=block;html=1;rounded=0;align=center;verticalAlign=bottom;endFill=0;labelBackgroundColor=none;endSize=8;exitX=0.75;exitY=0;exitDx=0;exitDy=0;entryX=0.25;entryY=1;entryDx=0;entryDy=0;" edge="1" parent="1" source="8" target="6">
                    <mxGeometry relative="1" as="geometry">
                        <mxPoint x="-90" y="350" as="sourcePoint"/>
                        <mxPoint x="70" y="350" as="targetPoint"/>
                    </mxGeometry>
                </mxCell>
                <mxCell id="26" value="" style="resizable=0;html=1;align=center;verticalAlign=top;labelBackgroundColor=none;" connectable="0" vertex="1" parent="25">
                    <mxGeometry relative="1" as="geometry"/>
                </mxCell>
                <mxCell id="27" value="" style="endArrow=block;html=1;rounded=0;align=center;verticalAlign=bottom;endFill=0;labelBackgroundColor=none;endSize=8;exitX=0.25;exitY=0;exitDx=0;exitDy=0;entryX=0.75;entryY=1;entryDx=0;entryDy=0;" edge="1" parent="1" source="7" target="6">
                    <mxGeometry relative="1" as="geometry">
                        <mxPoint x="-104" y="290" as="sourcePoint"/>
                        <mxPoint x="-66" y="230" as="targetPoint"/>
                        <Array as="points"/>
                    </mxGeometry>
                </mxCell>
                <mxCell id="28" value="" style="resizable=0;html=1;align=center;verticalAlign=top;labelBackgroundColor=none;" connectable="0" vertex="1" parent="27">
                    <mxGeometry relative="1" as="geometry"/>
                </mxCell>
                <mxCell id="29" value="" style="endArrow=none;startArrow=none;endFill=0;startFill=0;endSize=8;html=1;verticalAlign=bottom;labelBackgroundColor=none;strokeWidth=3;entryX=0;entryY=0.75;entryDx=0;entryDy=0;exitX=1;exitY=0.75;exitDx=0;exitDy=0;" edge="1" parent="1" source="8" target="7">
                    <mxGeometry width="160" relative="1" as="geometry">
                        <mxPoint x="-80" y="430" as="sourcePoint"/>
                        <mxPoint x="30" y="430" as="targetPoint"/>
                    </mxGeometry>
                </mxCell>
                <mxCell id="30" value="" style="endArrow=none;startArrow=none;endFill=0;startFill=0;endSize=8;html=1;verticalAlign=bottom;labelBackgroundColor=none;strokeWidth=3;exitX=1;exitY=0.25;exitDx=0;exitDy=0;entryX=0;entryY=0.75;entryDx=0;entryDy=0;" edge="1" parent="1" source="7" target="11">
                    <mxGeometry width="160" relative="1" as="geometry">
                        <mxPoint x="330" y="330" as="sourcePoint"/>
                        <mxPoint x="490" y="330" as="targetPoint"/>
                    </mxGeometry>
                </mxCell>
                <mxCell id="31" value="" style="endArrow=open;startArrow=none;endFill=0;startFill=0;endSize=8;html=1;verticalAlign=bottom;labelBackgroundColor=none;strokeWidth=1;exitX=1;exitY=0.75;exitDx=0;exitDy=0;entryX=0;entryY=0.5;entryDx=0;entryDy=0;" edge="1" parent="1" source="7" target="13">
                    <mxGeometry width="160" relative="1" as="geometry">
                        <mxPoint x="220" y="490" as="sourcePoint"/>
                        <mxPoint x="380" y="490" as="targetPoint"/>
                    </mxGeometry>
                </mxCell>
                <mxCell id="32" value="" style="endArrow=open;startArrow=none;endFill=0;startFill=0;endSize=8;html=1;verticalAlign=bottom;labelBackgroundColor=none;strokeWidth=1;exitX=0;exitY=0.5;exitDx=0;exitDy=0;entryX=1;entryY=0.25;entryDx=0;entryDy=0;" edge="1" parent="1" source="18" target="14">
                    <mxGeometry width="160" relative="1" as="geometry">
                        <mxPoint x="220" y="490" as="sourcePoint"/>
                        <mxPoint x="380" y="490" as="targetPoint"/>
                    </mxGeometry>
                </mxCell>
                <mxCell id="33" value="" style="endArrow=open;startArrow=none;endFill=0;startFill=0;endSize=8;html=1;verticalAlign=bottom;labelBackgroundColor=none;strokeWidth=1;entryX=0.75;entryY=1;entryDx=0;entryDy=0;exitX=0;exitY=0;exitDx=0;exitDy=0;" edge="1" parent="1" source="18" target="7">
                    <mxGeometry width="160" relative="1" as="geometry">
                        <mxPoint x="230" y="530" as="sourcePoint"/>
                        <mxPoint x="390" y="530" as="targetPoint"/>
                    </mxGeometry>
                </mxCell>
                <mxCell id="34" value="" style="endArrow=open;startArrow=none;endFill=0;startFill=0;endSize=8;html=1;verticalAlign=bottom;labelBackgroundColor=none;strokeWidth=1;exitX=0;exitY=0;exitDx=0;exitDy=0;entryX=1;entryY=1;entryDx=0;entryDy=0;" edge="1" parent="1" source="18" target="8">
                    <mxGeometry width="160" relative="1" as="geometry">
                        <mxPoint x="230" y="530" as="sourcePoint"/>
                        <mxPoint x="390" y="530" as="targetPoint"/>
                    </mxGeometry>
                </mxCell>
                <mxCell id="35" value="" style="endArrow=open;startArrow=none;endFill=0;startFill=0;endSize=8;html=1;verticalAlign=bottom;labelBackgroundColor=none;strokeWidth=1;exitX=0;exitY=0.25;exitDx=0;exitDy=0;entryX=1;entryY=0.25;entryDx=0;entryDy=0;" edge="1" parent="1" source="18" target="15">
                    <mxGeometry width="160" relative="1" as="geometry">
                        <mxPoint x="170" y="700" as="sourcePoint"/>
                        <mxPoint x="330" y="700" as="targetPoint"/>
                    </mxGeometry>
                </mxCell>
                <mxCell id="36" value="" style="endArrow=open;startArrow=none;endFill=0;startFill=0;endSize=8;html=1;verticalAlign=bottom;labelBackgroundColor=none;strokeWidth=1;exitX=1;exitY=0.25;exitDx=0;exitDy=0;entryX=0;entryY=0.25;entryDx=0;entryDy=0;" edge="1" parent="1" source="18" target="22">
                    <mxGeometry width="160" relative="1" as="geometry">
                        <mxPoint x="380" y="640" as="sourcePoint"/>
                        <mxPoint x="540" y="640" as="targetPoint"/>
                    </mxGeometry>
                </mxCell>
                <mxCell id="37" value="" style="endArrow=open;startArrow=none;endFill=0;startFill=0;endSize=8;html=1;verticalAlign=bottom;labelBackgroundColor=none;strokeWidth=1;exitX=0.5;exitY=1;exitDx=0;exitDy=0;entryX=0;entryY=0.25;entryDx=0;entryDy=0;" edge="1" parent="1" source="8" target="14">
                    <mxGeometry width="160" relative="1" as="geometry">
                        <mxPoint x="20" y="580" as="sourcePoint"/>
                        <mxPoint x="180" y="580" as="targetPoint"/>
                    </mxGeometry>
                </mxCell>
                <mxCell id="38" value="" style="endArrow=open;startArrow=none;endFill=0;startFill=0;endSize=8;html=1;verticalAlign=bottom;labelBackgroundColor=none;strokeWidth=1;exitX=0.5;exitY=1;exitDx=0;exitDy=0;entryX=0.25;entryY=0;entryDx=0;entryDy=0;" edge="1" parent="1" source="7" target="14">
                    <mxGeometry width="160" relative="1" as="geometry">
                        <mxPoint x="20" y="580" as="sourcePoint"/>
                        <mxPoint x="180" y="580" as="targetPoint"/>
                    </mxGeometry>
                </mxCell>
                <mxCell id="39" value="" style="endArrow=open;startArrow=none;endFill=0;startFill=0;endSize=8;html=1;verticalAlign=bottom;labelBackgroundColor=none;strokeWidth=1;exitX=0;exitY=0.5;exitDx=0;exitDy=0;entryX=1;entryY=0.25;entryDx=0;entryDy=0;" edge="1" parent="1" source="14" target="16">
                    <mxGeometry width="160" relative="1" as="geometry">
                        <mxPoint x="170" y="750" as="sourcePoint"/>
                        <mxPoint x="330" y="750" as="targetPoint"/>
                    </mxGeometry>
                </mxCell>
                <mxCell id="40" value="" style="endArrow=open;startArrow=none;endFill=0;startFill=0;endSize=8;html=1;verticalAlign=bottom;labelBackgroundColor=none;strokeWidth=1;exitX=0;exitY=1;exitDx=0;exitDy=0;entryX=0.5;entryY=0;entryDx=0;entryDy=0;" edge="1" parent="1" source="11" target="14">
                    <mxGeometry width="160" relative="1" as="geometry">
                        <mxPoint x="200" y="490" as="sourcePoint"/>
                        <mxPoint x="360" y="490" as="targetPoint"/>
                    </mxGeometry>
                </mxCell>
                <mxCell id="41" value="" style="endArrow=open;startArrow=none;endFill=0;startFill=0;endSize=8;html=1;verticalAlign=bottom;labelBackgroundColor=none;strokeWidth=1;exitX=0.5;exitY=1;exitDx=0;exitDy=0;entryX=0.5;entryY=0;entryDx=0;entryDy=0;" edge="1" parent="1" source="11" target="18">
                    <mxGeometry width="160" relative="1" as="geometry">
                        <mxPoint x="310" y="490" as="sourcePoint"/>
                        <mxPoint x="470" y="490" as="targetPoint"/>
                    </mxGeometry>
                </mxCell>
                <mxCell id="42" value="" style="endArrow=none;startArrow=none;endFill=0;startFill=0;endSize=8;html=1;verticalAlign=bottom;labelBackgroundColor=none;strokeWidth=3;exitX=1;exitY=0;exitDx=0;exitDy=0;entryX=0;entryY=0.5;entryDx=0;entryDy=0;" edge="1" parent="1" source="8" target="11">
                    <mxGeometry width="160" relative="1" as="geometry">
                        <mxPoint x="160" y="390" as="sourcePoint"/>
                        <mxPoint x="320" y="390" as="targetPoint"/>
                    </mxGeometry>
                </mxCell>
                <mxCell id="43" value="" style="endArrow=open;startArrow=none;endFill=0;startFill=0;endSize=8;html=1;verticalAlign=bottom;labelBackgroundColor=none;strokeWidth=1;exitX=1;exitY=0.5;exitDx=0;exitDy=0;entryX=0.25;entryY=0;entryDx=0;entryDy=0;" edge="1" parent="1" source="11" target="12">
                    <mxGeometry width="160" relative="1" as="geometry">
                        <mxPoint x="260" y="460" as="sourcePoint"/>
                        <mxPoint x="420" y="460" as="targetPoint"/>
                    </mxGeometry>
                </mxCell>
                <mxCell id="45" value="" style="endArrow=none;startArrow=diamondThin;endFill=0;startFill=0;html=1;verticalAlign=bottom;labelBackgroundColor=none;strokeWidth=1;startSize=8;endSize=8;exitX=0;exitY=0.25;exitDx=0;exitDy=0;entryX=1;entryY=0.5;entryDx=0;entryDy=0;" edge="1" parent="1" source="11" target="10">
                    <mxGeometry width="160" relative="1" as="geometry">
                        <mxPoint x="190" y="310" as="sourcePoint"/>
                        <mxPoint x="350" y="310" as="targetPoint"/>
                    </mxGeometry>
                </mxCell>
                <mxCell id="46" value="" style="endArrow=open;startArrow=none;endFill=0;startFill=0;endSize=8;html=1;verticalAlign=bottom;labelBackgroundColor=none;strokeWidth=1;exitX=0;exitY=0.25;exitDx=0;exitDy=0;entryX=1;entryY=0.25;entryDx=0;entryDy=0;" edge="1" parent="1" source="11" target="9">
                    <mxGeometry width="160" relative="1" as="geometry">
                        <mxPoint x="190" y="310" as="sourcePoint"/>
                        <mxPoint x="350" y="310" as="targetPoint"/>
                    </mxGeometry>
                </mxCell>
                <mxCell id="47" value="" style="endArrow=none;startArrow=diamondThin;endFill=0;startFill=0;html=1;verticalAlign=bottom;labelBackgroundColor=none;strokeWidth=1;startSize=8;endSize=8;exitX=0.5;exitY=0;exitDx=0;exitDy=0;" edge="1" parent="1" source="22" target="13">
                    <mxGeometry width="160" relative="1" as="geometry">
                        <mxPoint x="420" y="460" as="sourcePoint"/>
                        <mxPoint x="580" y="460" as="targetPoint"/>
                    </mxGeometry>
                </mxCell>
            </root>
        </mxGraphModel>
    </diagram>
</mxfile>